<svg width="22" height="22" viewBox="0 0 22 22" fill="none" xmlns="http://www.w3.org/2000/svg">
<path d="M0 3C0 1.34315 1.34315 0 3 0H19C20.6569 0 22 1.34315 22 3V19C22 20.6569 20.6569 22 19 22H3C1.34315 22 0 20.6569 0 19V3Z" fill="white"/>
<path fill-rule="evenodd" clip-rule="evenodd" d="M11 5C11.5523 5 12 5.44772 12 6V10H16C16.5523 10 17 10.4477 17 11C17 11.5523 16.5523 12 16 12H12V16C12 16.5523 11.5523 17 11 17C10.4477 17 10 16.5523 10 16V12H6C5.44772 12 5 11.5523 5 11C5 10.4477 5.44772 10 6 10H10V6C10 5.44772 10.4477 5 11 5Z" fill="black"/>
</svg>
