<svg width="22" height="22" viewBox="0 0 22 22" fill="none" xmlns="http://www.w3.org/2000/svg">
<path d="M19 8C19 12.4183 15.4183 16 11 16C6.58172 16 3 12.4183 3 8C3 3.58172 6.58172 0 11 0C15.4183 0 19 3.58172 19 8Z" fill="white"/>
<path d="M1.86995 15.8627C2.81538 14.459 4.78744 14.7276 6.22069 15.6276C7.60557 16.4971 9.24406 17 11 17C12.7559 17 14.3944 16.4971 15.7793 15.6276C17.2126 14.7276 19.1846 14.459 20.13 15.8627C21.3108 17.6157 22 19.7274 22 22H0C0 19.7274 0.689183 17.6157 1.86995 15.8627Z" fill="white"/>
</svg>
