<svg width="22" height="22" viewBox="0 0 22 22" fill="none" xmlns="http://www.w3.org/2000/svg">
<path fill-rule="evenodd" clip-rule="evenodd" d="M8.5 14C11.5376 14 14 11.5376 14 8.5C14 5.46243 11.5376 3 8.5 3C5.46243 3 3 5.46243 3 8.5C3 11.5376 5.46243 14 8.5 14ZM8.5 17C13.1944 17 17 13.1944 17 8.5C17 3.80558 13.1944 0 8.5 0C3.80558 0 0 3.80558 0 8.5C0 13.1944 3.80558 17 8.5 17Z" fill="black"/>
<path fill-rule="evenodd" clip-rule="evenodd" d="M12.9393 12.9393C13.5251 12.3536 14.4749 12.3536 15.0607 12.9393L21.5607 19.4393C22.1464 20.0251 22.1464 20.9749 21.5607 21.5607C20.9749 22.1464 20.0251 22.1464 19.4393 21.5607L12.9393 15.0607C12.3536 14.4749 12.3536 13.5251 12.9393 12.9393Z" fill="black"/>
</svg>
