<svg width="22" height="22" viewBox="0 0 22 22" fill="none" xmlns="http://www.w3.org/2000/svg">
<path fill-rule="evenodd" clip-rule="evenodd" d="M19 2H3C2.44772 2 2 2.44772 2 3V19C2 19.5523 2.44772 20 3 20H19C19.5523 20 20 19.5523 20 19V3C20 2.44772 19.5523 2 19 2ZM3 0C1.34315 0 0 1.34315 0 3V19C0 20.6569 1.34315 22 3 22H19C20.6569 22 22 20.6569 22 19V3C22 1.34315 20.6569 0 19 0H3Z" fill="white"/>
<path fill-rule="evenodd" clip-rule="evenodd" d="M11 5C11.5523 5 12 5.44772 12 6V10H16C16.5523 10 17 10.4477 17 11C17 11.5523 16.5523 12 16 12H12V16C12 16.5523 11.5523 17 11 17C10.4477 17 10 16.5523 10 16V12H6C5.44772 12 5 11.5523 5 11C5 10.4477 5.44772 10 6 10H10V6C10 5.44772 10.4477 5 11 5Z" fill="white"/>
</svg>
