<svg width="22" height="22" viewBox="0 0 22 22" fill="none" xmlns="http://www.w3.org/2000/svg">
<path fill-rule="evenodd" clip-rule="evenodd" d="M19 2H3C2.44772 2 2 2.44772 2 3V18L6 15C6.86548 14.3509 7.91815 14 9 14H19C19.5523 14 20 13.5523 20 13V3C20 2.44772 19.5523 2 19 2ZM7.2 16.6C7.71929 16.2105 8.35089 16 9 16H19C20.6569 16 22 14.6569 22 13V3C22 1.34315 20.6569 0 19 0H3C1.34315 0 0 1.34315 0 3V22L7.2 16.6Z" fill="white"/>
<path fill-rule="evenodd" clip-rule="evenodd" d="M8 9C8.55228 9 9 8.55228 9 8C9 7.44772 8.55228 7 8 7C7.44772 7 7 7.44772 7 8C7 8.55228 7.44772 9 8 9Z" fill="white"/>
<path fill-rule="evenodd" clip-rule="evenodd" d="M11 9C11.5523 9 12 8.55228 12 8C12 7.44772 11.5523 7 11 7C10.4477 7 10 7.44772 10 8C10 8.55228 10.4477 9 11 9Z" fill="white"/>
<path fill-rule="evenodd" clip-rule="evenodd" d="M14 9C14.5523 9 15 8.55228 15 8C15 7.44772 14.5523 7 14 7C13.4477 7 13 7.44772 13 8C13 8.55228 13.4477 9 14 9Z" fill="white"/>
</svg>
