<svg width="22" height="22" viewBox="0 0 22 22" fill="none" xmlns="http://www.w3.org/2000/svg">
<path d="M21 10.4216V19C21 20.1046 20.1046 21 19 21H14C13.4477 21 13 20.5523 13 20V16C13 14.8954 12.1046 14 11 14C9.89543 14 9 14.8954 9 16V20C9 20.5523 8.55229 21 8 21H3C1.89543 21 1 20.1046 1 19V10.4216C1 9.82177 1.26925 9.25358 1.73352 8.87372L9.73353 2.32827C10.4703 1.72549 11.5297 1.72549 12.2665 2.32827L20.2665 8.87372C20.7307 9.25358 21 9.82177 21 10.4216Z" stroke="black" stroke-width="2"/>
</svg>
