<svg width="22" height="22" viewBox="0 0 22 22" fill="none" xmlns="http://www.w3.org/2000/svg">
<path fill-rule="evenodd" clip-rule="evenodd" d="M11 14C14.3137 14 17 11.3137 17 8C17 4.68629 14.3137 2 11 2C7.68629 2 5 4.68629 5 8C5 11.3137 7.68629 14 11 14ZM11 16C15.4183 16 19 12.4183 19 8C19 3.58172 15.4183 0 11 0C6.58172 0 3 3.58172 3 8C3 12.4183 6.58172 16 11 16Z" fill="black"/>
<path fill-rule="evenodd" clip-rule="evenodd" d="M2 22C2 20.1378 2.56341 18.4132 3.52877 16.9799C3.55878 16.9354 3.57558 16.9276 3.58961 16.9211C3.61611 16.9087 3.69557 16.8804 3.85178 16.8812C4.19089 16.883 4.68219 17.0231 5.15715 17.3213C6.85135 18.3851 8.85693 19 11 19C13.1431 19 15.1487 18.3851 16.8428 17.3213C17.3178 17.0231 17.8091 16.883 18.1482 16.8812C18.3044 16.8804 18.3834 16.9085 18.4099 16.9208C18.424 16.9274 18.4412 16.9354 18.4712 16.9799C19.4366 18.4132 20 20.1378 20 22H22C22 19.7274 21.3108 17.6157 20.13 15.8627C19.1846 14.459 17.2126 14.7276 15.7793 15.6276C14.3944 16.4971 12.7559 17 11 17C9.24406 17 7.60557 16.4971 6.22069 15.6276C4.78744 14.7276 2.81538 14.459 1.86995 15.8627C0.689183 17.6157 0 19.7274 0 22H2Z" fill="black"/>
</svg>
