<svg width="22" height="22" viewBox="0 0 22 22" fill="none" xmlns="http://www.w3.org/2000/svg">
<path fill-rule="evenodd" clip-rule="evenodd" d="M0 3C0 1.34315 1.34315 0 3 0H12C13.6569 0 15 1.34315 15 3V7C15 7.55228 14.5523 8 14 8C13.4477 8 13 7.55228 13 7V3C13 2.44771 12.5523 2 12 2H3C2.44772 2 2 2.44772 2 3V19C2 19.5523 2.44772 20 3 20H12C12.5523 20 13 19.5523 13 19V15C13 14.4477 13.4477 14 14 14C14.5523 14 15 14.4477 15 15V19C15 20.6569 13.6569 22 12 22H3C1.34315 22 0 20.6569 0 19V3ZM17.2929 7.29289C17.6834 6.90237 18.3166 6.90237 18.7071 7.29289L21.7071 10.2929C22.0976 10.6834 22.0976 11.3166 21.7071 11.7071L18.7071 14.7071C18.3166 15.0976 17.6834 15.0976 17.2929 14.7071C16.9024 14.3166 16.9024 13.6834 17.2929 13.2929L18.5858 12H10C9.44771 12 9 11.5523 9 11C9 10.4477 9.44771 10 10 10H18.5858L17.2929 8.70711C16.9024 8.31658 16.9024 7.68342 17.2929 7.29289Z" fill="white"/>
</svg>
