<svg width="22" height="22" viewBox="0 0 22 22" fill="none" xmlns="http://www.w3.org/2000/svg">
<path d="M13 0H2C0.895431 0 0 0.89543 0 2V20C0 21.1046 0.89543 22 2 22H13C14.1046 22 15 21.1046 15 20V2C15 0.895431 14.1046 0 13 0Z" fill="white"/>
<path fill-rule="evenodd" clip-rule="evenodd" d="M17.2929 7.29289C17.6834 6.90237 18.3165 6.90237 18.7071 7.29289L21.7071 10.2929C22.0976 10.6834 22.0976 11.3166 21.7071 11.7071L18.7071 14.7071C18.3165 15.0976 17.6834 15.0976 17.2929 14.7071C16.9023 14.3166 16.9023 13.6834 17.2929 13.2929L18.5857 12H15V10H18.5857L17.2929 8.70711C16.9023 8.31658 16.9023 7.68342 17.2929 7.29289Z" fill="white"/>
<path fill-rule="evenodd" clip-rule="evenodd" d="M8 11C8 10.4477 8.44772 10 9 10H15V12H9C8.44772 12 8 11.5523 8 11Z" fill="black"/>
</svg>
