<svg width="41" height="24" viewBox="0 0 41 24" fill="none" xmlns="http://www.w3.org/2000/svg">
<path d="M1 1H40V23H1V1Z" fill="white"/>
<path fill-rule="evenodd" clip-rule="evenodd" d="M0 0H41V24H0V0ZM1 1V23H40V1H1Z" fill="white"/>
<path fill-rule="evenodd" clip-rule="evenodd" d="M38 3H3V21H38V3ZM1 1V23H40V1H1Z" fill="black"/>
<path fill-rule="evenodd" clip-rule="evenodd" d="M0 0H41V24H0V0ZM37 4H4V20H37V4ZM38 3V21H3V3H38ZM1 1H40V23H1V1Z" fill="white"/>
<path d="M30.2453 13.8669L34.1807 6.30038V6.24335H29.5601V4.13308H37V6.24335L33.0451 13.8669H30.2453Z" fill="#FD0000"/>
<path d="M28.6778 8.01141V9.9886H23.9789V8.01141H28.6778Z" fill="black"/>
<path d="M13.968 6.26236V4.13308H22.6806V6.26236H19.6654V13.8669H16.9832V6.26236H13.968Z" fill="black"/>
<path d="M10.5491 7.34601C10.5067 7.17807 10.4398 7.03074 10.3484 6.90399C10.257 6.77408 10.1428 6.66477 10.0058 6.57605C9.872 6.48416 9.71537 6.41603 9.5359 6.37167C9.35969 6.32414 9.16553 6.30038 8.95343 6.30038C8.49659 6.30038 8.10665 6.40653 7.7836 6.61882C7.46381 6.83112 7.21908 7.13688 7.04939 7.53612C6.88297 7.93536 6.79976 8.41698 6.79976 8.98099C6.79976 9.55133 6.87971 10.0393 7.0396 10.4449C7.1995 10.8504 7.4377 11.161 7.75423 11.3764C8.07075 11.5919 8.46396 11.6996 8.93385 11.6996C9.34827 11.6996 9.69253 11.641 9.96663 11.5238C10.244 11.4065 10.4512 11.2402 10.5883 11.0247C10.7253 10.8093 10.7938 10.5558 10.7938 10.2643L11.2637 10.3118H8.97301V8.42966H13.4174V9.77947C13.4174 10.6667 13.2232 11.4255 12.8349 12.0561C12.4499 12.6835 11.918 13.1651 11.2392 13.5009C10.5638 13.8336 9.78879 14 8.91427 14C7.93859 14 7.08202 13.7988 6.34456 13.3964C5.60709 12.994 5.03115 12.4205 4.61673 11.6759C4.20558 10.9312 4 10.0456 4 9.01901C4 8.21419 4.12563 7.50127 4.37689 6.88023C4.63141 6.25919 4.98383 5.73479 5.43414 5.30703C5.88446 4.87611 6.40492 4.55133 6.99555 4.3327C7.58618 4.1109 8.21922 4 8.89469 4C9.48858 4 10.04 4.08238 10.5491 4.24715C11.0614 4.40875 11.5134 4.64005 11.9049 4.94106C12.2998 5.23891 12.6179 5.59221 12.8594 6.00095C13.1009 6.4097 13.2477 6.85805 13.2999 7.34601H10.5491Z" fill="black"/>
<path d="M31.8157 15.0665H33.3791L34.3877 17.0437H34.428L35.4366 15.0665H37L35.1038 18.403V19.9335H33.7119V18.403L31.8157 15.0665Z" fill="black"/>
<path d="M27.5272 19.9335V15.0665H29.7563C30.1395 15.0665 30.4749 15.1323 30.7623 15.2638C31.0498 15.3953 31.2734 15.5846 31.4331 15.8317C31.5928 16.0789 31.6726 16.3752 31.6726 16.7205C31.6726 17.0691 31.5902 17.363 31.4255 17.6022C31.2624 17.8414 31.033 18.022 30.7371 18.144C30.4429 18.266 30.0992 18.327 29.7058 18.327H28.3744V17.3004H29.4234C29.5881 17.3004 29.7285 17.2814 29.8445 17.2433C29.9622 17.2037 30.0521 17.1412 30.1143 17.0556C30.1782 16.97 30.2101 16.8584 30.2101 16.7205C30.2101 16.5811 30.1782 16.4678 30.1143 16.3807C30.0521 16.292 29.9622 16.227 29.8445 16.1858C29.7285 16.1431 29.5881 16.1217 29.4234 16.1217H28.9292V19.9335H27.5272ZM30.5531 17.6996L31.8441 19.9335H30.3211L29.0603 17.6996H30.5531Z" fill="black"/>
<path d="M23.1101 19.9335V15.0665H26.8319V16.1312H24.5121V16.9677H26.6403V18.0323H24.5121V18.8688H26.8218V19.9335H23.1101Z" fill="black"/>
<path d="M19.0536 19.9335V15.0665H20.4556V18.8688H22.5434V19.9335H19.0536Z" fill="black"/>
<path d="M14.9971 19.9335V15.0665H16.399V18.8688H18.4869V19.9335H14.9971Z" fill="black"/>
<path d="M10.6871 19.9335H9.1742L10.8788 15.0665H12.7951L14.4997 19.9335H12.9868L11.8571 16.4068H11.8168L10.6871 19.9335ZM10.4047 18.0133H13.249V19.0019H10.4047V18.0133Z" fill="black"/>
<path d="M7.37382 16.673C7.35196 16.589 7.3175 16.5154 7.27043 16.452C7.22336 16.387 7.16453 16.3324 7.09393 16.288C7.025 16.2421 6.94431 16.208 6.85186 16.1858C6.76108 16.1621 6.66106 16.1502 6.5518 16.1502C6.31645 16.1502 6.11557 16.2033 5.94915 16.3094C5.78441 16.4156 5.65833 16.5684 5.57092 16.7681C5.48519 16.9677 5.44232 17.2085 5.44232 17.4905C5.44232 17.7757 5.4835 18.0196 5.56587 18.2224C5.64824 18.4252 5.77096 18.5805 5.93402 18.6882C6.09708 18.7959 6.29964 18.8498 6.54171 18.8498C6.7552 18.8498 6.93255 18.8205 7.07375 18.7619C7.21664 18.7033 7.32339 18.6201 7.39399 18.5124C7.46459 18.4046 7.49989 18.2779 7.49989 18.1321L7.74196 18.1559H6.56188V17.2148H8.85144V17.8897C8.85144 18.3333 8.75142 18.7128 8.55137 19.028C8.35301 19.3417 8.07901 19.5825 7.72935 19.7505C7.38138 19.9168 6.98214 20 6.53162 20C6.029 20 5.58773 19.8994 5.20782 19.6982C4.8279 19.497 4.5312 19.2102 4.31771 18.8379C4.1059 18.4656 4 18.0228 4 17.5095C4 17.1071 4.06472 16.7506 4.19416 16.4401C4.32528 16.1296 4.50683 15.8674 4.73881 15.6535C4.97079 15.4381 5.23892 15.2757 5.54318 15.1663C5.84745 15.0554 6.17356 15 6.52154 15C6.82748 15 7.11158 15.0412 7.37382 15.1236C7.63774 15.2044 7.87056 15.32 8.07228 15.4705C8.27569 15.6195 8.43959 15.7961 8.56398 16.0005C8.68838 16.2048 8.76402 16.429 8.79092 16.673H7.37382Z" fill="black"/>
</svg>
